<svg xmlns="http://www.w3.org/2000/svg" width="43.125" height="60" viewBox="0 0 43.125 60">
  <g id="book" transform="translate(-72)">
    <path id="Path_958" data-name="Path 958" d="M113.25,53.437a1.875,1.875,0,0,0,1.875-1.875V7.734A7.743,7.743,0,0,0,107.391,0H73.875A1.875,1.875,0,0,0,72,1.875V45a1.875,1.875,0,1,0,3.75,0V3.75h31.641a3.989,3.989,0,0,1,3.984,3.984V51.562A1.875,1.875,0,0,0,113.25,53.437Z" transform="translate(0)" fill="#fff"/>
    <path id="Path_959" data-name="Path 959" d="M73.875,384.875h32.813a8.438,8.438,0,0,0,0-16.875H73.875a1.875,1.875,0,0,0,0,3.75h32.813a4.687,4.687,0,1,1,0,9.375H73.875a1.875,1.875,0,0,0,0,3.75Z" transform="translate(0 -324.875)" fill="#fff"/>
    <path id="Path_960" data-name="Path 960" d="M129.875,427.75h32.812a1.875,1.875,0,1,0,0-3.75H129.875a1.875,1.875,0,1,0,0,3.75Z" transform="translate(-56 -374.313)" fill="#fff"/>
    <path id="Path_961" data-name="Path 961" d="M145.875,46.875A1.875,1.875,0,0,0,147.75,45V1.875a1.875,1.875,0,0,0-3.75,0V45A1.875,1.875,0,0,0,145.875,46.875Z" transform="translate(-41.063)" fill="#fff"/>
  </g>
</svg>
