<svg xmlns="http://www.w3.org/2000/svg" width="80" height="80" viewBox="0 0 80 80">
  <g id="XMLID_476_" transform="translate(0 0)">
    <path id="XMLID_503_" d="M204.475,31.127a2.7,2.7,0,0,0,0-3.814l-4.048-4.048A2.7,2.7,0,0,0,197,22.941l-8.511,5.785,5.75-8.569a2.7,2.7,0,0,0-.333-3.41l-8.781-8.781a2.7,2.7,0,0,0-3.077-.523l-1.518.731.727-1.613a2.7,2.7,0,0,0-.552-3.016L177.953.79a2.7,2.7,0,0,0-3.814,0L152.729,22.2l30.337,30.337Z" transform="translate(-125.266 0)" fill="#fff"/>
    <path id="XMLID_1199_" d="M23.477,145.622l-6.2,6.2a2.7,2.7,0,0,0,0,3.814l5.879,5.879a5.255,5.255,0,0,1-.9,8.15C4.987,180.674,3.377,182.285,2.848,182.814a9.74,9.74,0,0,0,13.774,13.774c.529-.529,2.14-2.14,13.151-19.414a5.263,5.263,0,0,1,8.15-.9l5.879,5.879a2.7,2.7,0,0,0,3.815,0l6.2-6.2ZM12.6,192.232a3.812,3.812,0,1,1,0-5.392A3.812,3.812,0,0,1,12.6,192.232Z" transform="translate(0 -119.436)" fill="#fff"/>
  </g>
</svg>
