<svg xmlns="http://www.w3.org/2000/svg" width="40.512" height="40" viewBox="0 0 40.512 40">
  <g id="Group_1020" data-name="Group 1020" transform="translate(-560 -100)">
    <path id="Path_75" data-name="Path 75" d="M-26.012,461.4h5.4c.635,6.058,3.579,10.536,9.3,12.741,5.694,2.193,10.867.9,15.331-3.076l3.829,3.853c-4.64,4.958-13.2,7.533-21.245,4.4C-20.794,476.439-26.429,468.465-26.012,461.4Z" transform="translate(592.601 -340.69)" fill="#56ba8c"/>
    <path id="Path_76" data-name="Path 76" d="M-23.765,380.684h.873c6.02,0,12.041.019,18.061-.007A13.383,13.383,0,0,1,4.309,383.9c.213.184.411.384.646.6-1.081,1.1-2.092,2.221-3.217,3.212a1.452,1.452,0,0,1-1.377.04,9.219,9.219,0,0,0-5.668-1.532c-4.536.055-9.073.038-13.61.009A4.755,4.755,0,0,1-23.765,380.684Z" transform="translate(590.766 -273.793)" fill="#56ba8c"/>
    <path id="Path_77" data-name="Path 77" d="M16.328,340.568a1.535,1.535,0,0,1,.3-.071c4.789.037,9.588-.1,14.365.166a18.551,18.551,0,0,1,11.986,5.57l-3.888,3.9a2.29,2.29,0,0,1-.255-.2A14.374,14.374,0,0,0,28.8,346.043c-2.51.006-5.02.026-7.529-.007A4.762,4.762,0,0,1,16.328,340.568Z" transform="translate(557.533 -240.493)" fill="#56ba8c"/>
    <path id="Path_78" data-name="Path 78" d="M36.522,470.063a12.925,12.925,0,0,1-13.695,3.157c-4.915-1.769-8.65-6.779-8.569-11.578h5.374a21.328,21.328,0,0,0,.831,2.509A7.557,7.557,0,0,0,31.44,467.21c1.2-.782,1.414-.759,2.414.231C34.742,468.32,35.636,469.192,36.522,470.063Z" transform="translate(559.211 -340.888)" fill="#56ba8c"/>
    <path id="Path_79" data-name="Path 79" d="M-42.309,421.331a8.05,8.05,0,0,0-3.139,5.471h-6.208c-2.627,0-5.254.015-7.88,0a4.788,4.788,0,0,1-4.825-4.589,7.612,7.612,0,0,1,.048-.877Z" transform="translate(624.366 -307.483)" fill="#56ba8c"/>
  </g>
</svg>
