<svg xmlns="http://www.w3.org/2000/svg" width="52.676" height="51" viewBox="0 0 52.676 51">
  <g id="open-source" transform="translate(0 -8.144)">
    <g id="Group_13" data-name="Group 13" transform="translate(0 8.144)">
      <path id="Path_14" data-name="Path 14" d="M26.338,8.144A26.316,26.316,0,0,0,16.9,59.032a1.621,1.621,0,0,0,1.3-.056,1.652,1.652,0,0,0,.853-.991l4.938-15.77a1.643,1.643,0,0,0-.774-1.933,6.581,6.581,0,1,1,6.242,0,1.639,1.639,0,0,0-.774,1.933l4.938,15.77a1.652,1.652,0,0,0,.853.991,1.67,1.67,0,0,0,.718.165,1.635,1.635,0,0,0,.586-.109A26.318,26.318,0,0,0,26.338,8.144Z" transform="translate(0 -8.144)" fill="#fff"/>
    </g>
  </g>
</svg>
