<svg xmlns="http://www.w3.org/2000/svg" width="77.422" height="80" viewBox="0 0 77.422 80">
  <g id="puzzle" transform="translate(-8.25)">
    <g id="Group_1052" data-name="Group 1052" transform="translate(51.108 0)">
      <g id="Group_1051" data-name="Group 1051">
        <g id="Group_1050" data-name="Group 1050">
          <path id="Path_962" data-name="Path 962" d="M300.362,41.459a6.264,6.264,0,0,1-4.792-2.237,6.442,6.442,0,0,1-1.513-4.659h-9.95A1.563,1.563,0,0,1,282.544,33V22.464a1.563,1.563,0,0,1,1.845-1.537l.094.017a3.211,3.211,0,1,0,0-6.318l-.093.017a1.563,1.563,0,0,1-1.844-1.537V1.562A1.563,1.563,0,0,1,284.107,0h25.921a7.088,7.088,0,0,1,7.08,7.08V33a1.562,1.562,0,0,1-1.562,1.563h-8.875a6.337,6.337,0,0,1-6.217,6.9ZM285.669,31.438h10.225a1.562,1.562,0,0,1,1.537,1.844l-.213,1.164a3.329,3.329,0,0,0,.737,2.758,3.116,3.116,0,0,0,2.453,1.13,3.211,3.211,0,0,0,3.11-3.789l-.231-1.263a1.563,1.563,0,0,1,1.537-1.844h9.159V7.08a3.96,3.96,0,0,0-3.955-3.955H285.669v8.352a6.338,6.338,0,0,1,0,12.616Z" transform="translate(-282.544 0)" fill="#fff"/>
        </g>
      </g>
    </g>
    <g id="Group_1057" data-name="Group 1057" transform="translate(8.25 13.998)">
      <g id="Group_1053" data-name="Group 1053">
        <path id="Path_963" data-name="Path 963" d="M72.689,129.809a1.562,1.562,0,0,0,1.563-1.562v-5.657a1.562,1.562,0,0,0-1.562-1.562H61.968a1.563,1.563,0,0,0-1.537,1.844l.231,1.263a3.211,3.211,0,0,1-3.11,3.789,3.118,3.118,0,0,1-2.453-1.13,3.328,3.328,0,0,1-.737-2.758l.213-1.164a1.562,1.562,0,0,0-1.537-1.844H42.813v-7.345a6.338,6.338,0,0,0,0-12.616V91.151a1.562,1.562,0,0,0-1.562-1.562H15.33a7.088,7.088,0,0,0-7.08,7.08V148.51a7.088,7.088,0,0,0,7.08,7.08H67.172a7.088,7.088,0,0,0,7.08-7.08v-4.535a1.563,1.563,0,0,0-3.125,0v4.535a3.96,3.96,0,0,1-3.955,3.955H42.813V142.386a1.563,1.563,0,0,0-1.843-1.537l-.095.017a3.211,3.211,0,1,1,0-6.318l.094.017a1.563,1.563,0,0,0,1.843-1.537v-8.878H51.2a6.44,6.44,0,0,0,1.513,4.659,6.316,6.316,0,0,0,11.1-4.659h7.312v4.095a1.562,1.562,0,0,0,1.562,1.563ZM11.375,96.668a3.96,3.96,0,0,1,3.955-3.955H39.688v9.981a1.563,1.563,0,0,0,1.843,1.537l.094-.017h0a3.211,3.211,0,1,1,0,6.318l-.094-.017a1.563,1.563,0,0,0-1.844,1.537v8.975h-6.7a6.344,6.344,0,0,0-12.175,0H11.375Zm24.866,36.173a6.338,6.338,0,0,0,3.447,11.176v8.449H15.33a3.96,3.96,0,0,1-3.955-3.955V124.151H22.126a1.563,1.563,0,0,0,1.561-1.495,3.213,3.213,0,0,1,6.419,0,1.562,1.562,0,0,0,1.561,1.495h8.021V131.4a6.319,6.319,0,0,0-3.448,1.441Z" transform="translate(-8.25 -89.588)" fill="#fff"/>
      </g>
      <g id="Group_1056" data-name="Group 1056" transform="translate(62.879 44.883)">
        <g id="Group_1055" data-name="Group 1055">
          <g id="Group_1054" data-name="Group 1054">
            <path id="Path_964" data-name="Path 964" d="M412.237,379.961a1.562,1.562,0,1,1,1.533-1.256A1.575,1.575,0,0,1,412.237,379.961Z" transform="translate(-410.678 -376.841)" fill="#fff"/>
          </g>
        </g>
      </g>
    </g>
  </g>
</svg>
