<svg xmlns="http://www.w3.org/2000/svg" width="80" height="79.996" viewBox="0 0 80 79.996">
  <path id="Path_957" data-name="Path 957" d="M96.066,186.719a1.837,1.837,0,0,0,.3.222,39.82,39.82,0,0,0,58.028-.018,1.865,1.865,0,0,0,.28-.2,1.949,1.949,0,0,0,.172-.292,39.758,39.758,0,0,0,0-53.9l-.008,0a1.953,1.953,0,0,0-.172-.292,1.791,1.791,0,0,0-.3-.224,39.82,39.82,0,0,0-58,0,1.78,1.78,0,0,0-.3.224,1.95,1.95,0,0,0-.172.292,39.758,39.758,0,0,0,0,53.9A1.93,1.93,0,0,0,96.066,186.719Zm40.2,7.054a36.752,36.752,0,0,0,6.81-12.6v-.006a36.617,36.617,0,0,1,7.066,4.348A36,36,0,0,1,136.27,193.773Zm16.636-11.164a40.559,40.559,0,0,0-8.692-5.33,71.3,71.3,0,0,0,2.094-15.8h14.95A35.8,35.8,0,0,1,152.906,182.609Zm8.352-25.13h-14.95a71.326,71.326,0,0,0-2.094-15.8,40.565,40.565,0,0,0,8.692-5.326A35.8,35.8,0,0,1,161.258,157.479Zm-11.112-24.042a36.6,36.6,0,0,1-7.066,4.348,36.754,36.754,0,0,0-6.81-12.606A36.007,36.007,0,0,1,150.146,133.437Zm-22.786-9.678c4.9,1.284,9.238,7.178,11.97,15.522a42.466,42.466,0,0,1-11.97,2.278Zm0,21.8a46.252,46.252,0,0,0,13.072-2.4,67.715,67.715,0,0,1,1.878,14.318H127.36Zm0,15.918h14.95a67.709,67.709,0,0,1-1.878,14.314,46.249,46.249,0,0,0-13.072-2.4Zm0,15.92a42.469,42.469,0,0,1,11.97,2.28c-2.732,8.344-7.068,14.238-11.97,15.522Zm-26.786,8.11a36.616,36.616,0,0,1,7.066-4.336v-.006a36.753,36.753,0,0,0,6.81,12.6A36,36,0,0,1,100.574,185.509Zm22.786,9.69c-4.9-1.284-9.238-7.178-11.97-15.522a42.465,42.465,0,0,1,11.97-2.278Zm0-21.8a46.254,46.254,0,0,0-13.072,2.4,67.715,67.715,0,0,1-1.878-14.318h14.95Zm0-15.918H108.41a67.71,67.71,0,0,1,1.878-14.314,46.248,46.248,0,0,0,13.072,2.4Zm0-33.722v17.8a42.47,42.47,0,0,1-11.97-2.28C114.122,130.935,118.458,125.041,123.36,123.757Zm-8.91,1.416a36.752,36.752,0,0,0-6.81,12.612v-.006a36.607,36.607,0,0,1-7.066-4.348A36,36,0,0,1,114.45,125.173ZM97.814,136.349a40.56,40.56,0,0,0,8.692,5.33,71.3,71.3,0,0,0-2.094,15.8H89.462A35.8,35.8,0,0,1,97.814,136.349Zm6.6,25.13a71.325,71.325,0,0,0,2.094,15.8,40.566,40.566,0,0,0-8.692,5.326,35.8,35.8,0,0,1-8.352-21.126h14.95Z" transform="translate(-85.369 -119.483)" fill="#fff"/>
</svg>
